<svg width="32" height="32" viewBox="0 0 32 32" version="1.1" xmlns="http://www.w3.org/2000/svg">
  <path d="M130.82233 30c8.48057 0 12.37179 5.65371 11.67367 16.96113c-0.17453 2.82686 -0.66083 6.12485 -1.45891 9.89399c-3.93221 17.90342 -12.51653 36.3722 -25.75295 55.40636c-9.5184 13.75736 -18.25151 22.42638 -26.19932 26.00707c-5.02576 20.35336 -9.46402 38.82214 -13.31478 55.40636l1.9788 0c18.0062 -35.24146 35.11295 -52.86219 51.32025 -52.86219c5.84217 0 10.30171 1.79034 13.37864 5.37102c3.07693 3.58068 4.42341 8.48057 4.03944 14.69965c-0.38397 6.21908 -3.67456 19.8351 -9.87178 40.84806c-6.19722 21.01296 -9.55181 35.66549 -10.06377 43.9576c-0.7563 12.24971 1.12704 18.37456 5.65001 18.37456c-0.08145 1.3192 -1.01095 2.6384 -2.78851 3.9576c-1.77756 1.3192 -3.79708 1.9788 -6.05857 1.9788c-10.93051 0 -15.86635 -8.57479 -14.80754 -25.72438c0.65158 -10.55359 4.39996 -26.24264 11.24515 -47.06714c6.84519 -20.8245 10.45395 -34.25206 10.82628 -40.28269c0.37233 -6.03062 -1.79722 -9.04594 -6.50864 -9.04594c-5.46525 0 -11.78094 4.6172 -18.94707 13.85159c-7.16613 9.23439 -14.01819 21.01296 -20.55619 35.33569c-10.84236 22.99176 -19.0963 42.21437 -24.76183 57.66784c-1.36345 3.76914 -3.08169 5.65371 -5.15471 5.65371c-3.39223 0 -5.80841 -2.07303 -7.24854 -6.21908c-0.80266 -2.26148 -1.12545 -4.66431 -0.96838 -7.20848c0.15708 -2.54417 1.20179 -7.25559 3.13413 -14.13428c1.93235 -6.87868 5.17697 -18.98704 9.73388 -36.32509c4.55691 -17.33804 8.4123 -31.70789 11.56618 -43.10954c3.15388 -11.40165 6.77194 -24.21673 10.85418 -38.44523c4.08224 -14.2285 7.86024 -25.81861 11.334 -34.77032c3.47376 -8.95171 7.35119 -17.57362 11.63229 -25.86572c8.16201 -16.2073 16.86021 -24.31095 26.0946 -24.31095 M135.95933 47.5265c0.37233 -6.03062 -1.09689 -9.70554 -4.40767 -11.02473c-11.11896 0 -24.53467 31.09541 -40.24713 93.28622c7.86407 -5.2768 16.33661 -15.83039 25.41764 -31.66078c12.05684 -21.29564 18.46923 -38.16254 19.23716 -50.60071z" ></path>
  <path d="M187.97106 253.60424c4.89988 0 12.17998 -6.50177 21.8403 -19.5053c9.66032 -13.00353 18.09567 -26.00707 25.30604 -39.0106l10.81557 -19.5053l7.63251 0c-1.27037 2.26148 -2.91998 5.32391 -4.94885 9.18728c-2.02887 3.86337 -5.98712 10.74205 -11.87478 20.63604c-5.88765 9.89399 -11.46701 18.61013 -16.73808 26.14841c-5.27107 7.53828 -11.06387 14.36985 -17.37842 20.4947c-6.31454 6.12485 -11.63907 9.18728 -15.97358 9.18728c-13.94582 0 -20.36023 -9.04594 -19.24324 -27.13781c0.83774 -13.5689 6.06245 -35.61837 15.67411 -66.14841c0.95163 -3.20377 1.71537 -5.65371 2.29123 -7.34982c0.57586 -1.69611 1.23083 -3.91048 1.96492 -6.64311c0.73408 -2.73263 1.45362 -5.22968 2.15862 -7.49117c1.18663 -3.9576 3.00491 -5.9364 5.45485 -5.9364c3.39223 0 5.69091 2.44994 6.89604 7.34982c0.6142 2.26148 0.82241 4.99411 0.6246 8.19788c-0.1978 3.20377 -0.78124 6.54888 -1.75032 10.03534c-0.96908 3.48645 -2.51112 8.62191 -4.6261 15.40636c-2.11499 6.78445 -3.77743 12.34393 -4.98732 16.67845c-1.2099 4.33451 -2.5722 9.61131 -4.08691 15.83039c-2.71297 10.36514 -4.31671 19.55241 -4.81121 27.56184c-0.4945 8.00942 1.4255 12.01413 5.76001 12.01413z M216.09842 91.06007c4.33451 0 6.32142 2.92108 5.96072 8.76325c-0.3607 5.84217 -3.47843 10.55359 -9.35322 14.13428c-2.94321 1.88457 -5.45133 2.82686 -7.52435 2.82686c-3.01531 0 -4.74748 -0.94229 -5.19649 -2.82686l-0.23033 -0.84806c1.69611 0 3.03453 -1.83746 4.01525 -5.51237c0.98072 -3.67491 2.38546 -7.34982 4.21424 -11.02473c1.82877 -3.67491 4.5335 -5.51237 8.11419 -5.51237" ></path>
</svg>


